<svg width="14" height="12" viewBox="0 0 14 12" fill="none" xmlns="http://www.w3.org/2000/svg">
<path d="M-0.000101518 5.97868C-0.000101518 5.82013 0.0590269 5.66807 0.164277 5.55596C0.269527 5.44384 0.412277 5.38086 0.561123 5.38086H11.5534L7.45997 1.02121C7.40783 0.965665 7.36647 0.899725 7.33825 0.827153C7.31003 0.754581 7.2955 0.676799 7.2955 0.598247C7.2955 0.519696 7.31003 0.441914 7.33825 0.369342C7.36647 0.29677 7.40783 0.230829 7.45997 0.175285C7.51212 0.119741 7.57402 0.0756815 7.64215 0.0456212C7.71028 0.0155609 7.7833 8.82045e-05 7.85704 8.82045e-05C7.93078 8.82045e-05 8.0038 0.0155609 8.07193 0.0456212C8.14006 0.0756815 8.20196 0.119741 8.25411 0.175285L13.3051 5.55572C13.3573 5.61124 13.3987 5.67718 13.4269 5.74975C13.4552 5.82233 13.4697 5.90012 13.4697 5.97868C13.4697 6.05725 13.4552 6.13504 13.4269 6.20761C13.3987 6.28019 13.3573 6.34612 13.3051 6.40164L8.25411 11.7821C8.1488 11.8943 8.00597 11.9573 7.85704 11.9573C7.70811 11.9573 7.56528 11.8943 7.45997 11.7821C7.35467 11.6699 7.2955 11.5178 7.2955 11.3591C7.2955 11.2005 7.35467 11.0483 7.45997 10.9362L11.5534 6.57651H0.561123C0.412277 6.57651 0.269527 6.51352 0.164277 6.40141C0.0590269 6.28929 -0.000101518 6.13724 -0.000101518 5.97868Z" fill="white"/>
</svg>
